<svg width="55" height="55" viewBox="0 0 55 55" fill="none" xmlns="http://www.w3.org/2000/svg">
    <circle cx="27.5" cy="27.5" r="27.5" fill="#E7EDFF"/>
    <path d="M36.995 22.3825C36.9812 20.8522 36.3641 19.3892 35.2779 18.3112C34.1917 17.2332 32.7241 16.6273 31.1937 16.625H22.75C22.5402 16.6223 22.3365 16.695 22.1759 16.8299C22.0153 16.9649 21.9085 17.153 21.875 17.36L18.8825 36.1288C18.8638 36.253 18.8721 36.3799 18.9068 36.5007C18.9415 36.6215 19.0019 36.7334 19.0837 36.8288C19.1651 36.9264 19.2667 37.0052 19.3815 37.0596C19.4963 37.114 19.6217 37.1427 19.7487 37.1438H23.3625L23.17 38.36C23.1495 38.4861 23.1569 38.6151 23.1917 38.738C23.2264 38.8609 23.2876 38.9747 23.371 39.0714C23.4543 39.1681 23.5579 39.2454 23.6743 39.2979C23.7908 39.3503 23.9173 39.3767 24.045 39.375H28.1137C28.3222 39.378 28.5249 39.3065 28.6853 39.1734C28.8457 39.0403 28.9533 38.8542 28.9887 38.6488L29.8637 33.3025H32.62C34.3451 33.2956 35.9974 32.606 37.2156 31.3845C38.4338 30.163 39.1189 28.5089 39.1212 26.7838V26.5388C39.1203 25.7273 38.9272 24.9275 38.5576 24.2051C38.188 23.4827 37.6525 22.8581 36.995 22.3825ZM23.4937 18.375H31.1937C32.1117 18.3778 33.0017 18.6917 33.7184 19.2654C34.4351 19.839 34.9362 20.6387 35.14 21.5338C34.7614 21.445 34.3738 21.4009 33.985 21.4025H26.6875C26.4777 21.3998 26.274 21.4725 26.1134 21.6074C25.9528 21.7424 25.846 21.9305 25.8125 22.1375L25.2962 25.375C25.2591 25.6071 25.3157 25.8444 25.4535 26.0347C25.5914 26.2251 25.7992 26.3529 26.0312 26.39C26.2633 26.4271 26.5006 26.3706 26.691 26.2327C26.8813 26.0949 27.0091 25.8871 27.0462 25.655L27.4487 23.135H34.0025C34.4219 23.1372 34.8373 23.2173 35.2275 23.3713C35.0611 24.741 34.4003 26.0029 33.3691 26.9197C32.3378 27.8365 31.0073 28.3451 29.6275 28.35H25.5675C25.359 28.347 25.1563 28.4185 24.9959 28.5516C24.8355 28.6848 24.7279 28.8708 24.6925 29.0763L23.625 35.3938H20.7725L23.4937 18.375ZM37.3712 26.7838C37.3689 28.0448 36.8682 29.2538 35.9781 30.1471C35.0881 31.0404 33.881 31.5456 32.62 31.5525H29.12C28.9115 31.5495 28.7088 31.621 28.5484 31.7541C28.388 31.8873 28.2804 32.0733 28.245 32.2788L27.37 37.625H25.06L25.2525 36.4088L26.3025 30.1175H29.61C31.2435 30.1127 32.8295 29.5677 34.121 28.5675C35.4124 27.5672 36.3368 26.1679 36.75 24.5875C37.1561 25.1569 37.3734 25.8394 37.3712 26.5388V26.7838Z" fill="#396AFF"/>
</svg>
